# xmcd
#
# Track frame offsets: 
#        150
#        21485
#        40583
#        60388
#        77765
#        97859
#        119351
#        140359
#        157644
#        175482
#        197632
#
# Disc length: 2908 seconds
#
# Revision: 0
# Processed by: cddbd v1.5.2PL0 Copyright (c) Steve Scherf et al.
# Submitted via: ExactAudioCopy v0.99pb4
#
DISCID=810b5a0b
DTITLE=Johnny Hörmannsdorfer - mittn im lebn
DYEAR=2000
DGENRE=Vocal
TTITLE0=Wos I Denkn Mog
TTITLE1=Wahnsinn
TTITLE2=Es Hod Ja Kan Sinn
TTITLE3=Mittn im Lebn
TTITLE4=Sehnsucht
TTITLE5=Die Anzige
TTITLE6=Spotlicht
TTITLE7=Die Welln
TTITLE8=Traumfrau
TTITLE9=Schod
TTITLE10=Dei Gsicht
EXTD=
EXTT0=
EXTT1=
EXTT2=
EXTT3=
EXTT4=
EXTT5=
EXTT6=
EXTT7=
EXTT8=
EXTT9=
EXTT10=
PLAYORDER=
